<?xml version="1.0" encoding="utf-8"?>
<!-- Generator: Adobe Illustrator 21.0.0, SVG Export Plug-In . SVG Version: 6.00 Build 0)  -->
<svg version="1.1" id="Capa_1" xmlns="http://www.w3.org/2000/svg" xmlns:xlink="http://www.w3.org/1999/xlink" x="0px" y="0px"
	 viewBox="0 0 498.1 294.1" style="enable-background:new 0 0 498.1 294.1;" xml:space="preserve">
<style type="text/css">
	.st0{fill:#FFFFFF;}
	.st1{fill:#067BC0;}
</style>
<title>logo_ic</title>
<g>
	<g>
		<path class="st0" d="M20.5,248.1c0,1.3-1,2.4-2.2,2.4c-0.1,0-0.1,0-0.2,0c-1.3,0-2.3-1-2.3-2.2c0-0.1,0-0.1,0-0.2
			c0-1.3,1-2.4,2.3-2.4c0,0,0.1,0,0.1,0c1.3,0,2.4,1,2.4,2.3C20.5,248,20.5,248,20.5,248.1z M16.2,275.4v-21.4h3.9v21.4L16.2,275.4
			L16.2,275.4z"/>
		<path class="st0" d="M26.6,259.8c0-2.3,0-4-0.2-5.8h3.4l0.2,3.5h0.1c1.4-2.5,4.2-4,7.1-4c3,0,7.5,1.8,7.5,9.1v12.7h-3.9v-12.3
			c0-3.4-1.3-6.3-4.9-6.3c-3.1,0.1-5.5,2.7-5.5,5.8v12.9h-3.9V259.8z"/>
		<path class="st0" d="M51.1,259.8c0-2.3,0-4-0.2-5.8h3.5l0.2,3.5h0.1c1.4-2.5,4.2-4,7.1-4c3,0,7.5,1.8,7.5,9.1v12.7h-3.9v-12.3
			c0-3.4-1.3-6.3-4.9-6.3c-3.1,0.1-5.5,2.7-5.5,5.8v12.9h-3.9V259.8z"/>
		<path class="st0" d="M94.9,264.6c0,7.9-5.5,11.3-10.6,11.3c-5.7,0-10.2-4.2-10.2-11c0-7.1,4.7-11.3,10.6-11.3
			C90.7,253.6,94.9,258.1,94.9,264.6z M78,264.8c0,4.7,2.6,8.2,6.4,8.2s6.5-3.5,6.5-8.3c0-3.6-1.8-8.2-6.4-8.2
			C79.9,256.5,78,260.8,78,264.8L78,264.8z"/>
		<path class="st0" d="M101,254.1l4.2,12c0.7,2,1.3,3.8,1.7,5.5h0.1c0.5-1.8,1.1-3.5,1.8-5.5l4.2-12h4.1l-8.4,21.4H105l-8.1-21.4
			L101,254.1L101,254.1z"/>
		<path class="st0" d="M135.6,270.3c0,1.7,0.1,3.4,0.3,5.1h-3.5l-0.3-2.7h-0.1c-1.5,2.1-4,3.2-6.6,3.2c-4.3,0-6.6-3-6.6-6.1
			c0-5.2,4.6-8,12.9-7.9v-0.4c0-1.7-0.5-4.9-4.9-4.9c-2,0-3.9,0.5-5.6,1.6l-0.9-2.6c2.1-1.2,4.6-1.9,7.1-1.9c6.6,0,8.1,4.5,8.1,8.7
			v8L135.6,270.3z M131.8,264.5c-4.2-0.1-9,0.7-9,4.8c-0.2,1.9,1.2,3.5,3.1,3.7c0.2,0,0.4,0,0.5,0c2.3,0.1,4.5-1.4,5.3-3.6
			c0.1-0.4,0.2-0.8,0.2-1.2V264.5L131.8,264.5z"/>
		<path class="st0" d="M157.1,274.7c-1.9,0.8-4,1.3-6.1,1.2c-6.4,0-10.6-4.4-10.6-10.9c0-6.5,4.5-11.4,11.5-11.4
			c1.9,0,3.7,0.4,5.4,1.1l-0.9,3c-1.4-0.7-2.9-1.1-4.5-1c-4.9,0-7.5,3.7-7.5,8.1c0,4.9,3.2,8,7.4,8c1.6,0,3.3-0.3,4.8-1L157.1,274.7
			z"/>
		<path class="st0" d="M165.9,248.1c0,1.3-1,2.4-2.2,2.4c-0.1,0-0.1,0-0.2,0c-1.3,0-2.3-1-2.3-2.2c0-0.1,0-0.1,0-0.2
			c0-1.3,1-2.4,2.3-2.4c0,0,0.1,0,0.1,0c1.3,0,2.4,1,2.4,2.3C165.9,248,165.9,248,165.9,248.1z M161.6,275.4v-21.4h3.9v21.4
			L161.6,275.4L161.6,275.4z"/>
		<path class="st0" d="M191.3,264.6c0,7.9-5.5,11.3-10.6,11.3c-5.7,0-10.2-4.2-10.2-11c0-7.1,4.7-11.3,10.6-11.3
			C187.1,253.6,191.3,258.1,191.3,264.6z M174.4,264.8c0,4.7,2.6,8.2,6.4,8.2s6.5-3.5,6.5-8.3c0-3.6-1.8-8.2-6.4-8.2
			C176.3,256.5,174.4,260.8,174.4,264.8L174.4,264.8z M186.6,244.8l-5.4,6.3h-2.7l3.8-6.3H186.6L186.6,244.8z"/>
		<path class="st0" d="M196.2,259.8c0-2.3,0-4-0.2-5.8h3.4l0.2,3.5h0.1c1.4-2.5,4.2-4,7.1-4c3,0,7.5,1.8,7.5,9.1v12.7h-3.9v-12.3
			c0-3.4-1.3-6.3-4.9-6.3c-3.1,0.1-5.5,2.7-5.5,5.8v12.9h-3.9V259.8z"/>
		<path class="st0" d="M231.5,254.1l4.6,12.6c0.5,1.4,1.1,3.1,1.4,4.4h0.1c0.4-1.3,0.8-2.9,1.4-4.5l4.2-12.5h4.1l-5.8,15.2
			c-2.8,7.3-4.7,11-7.3,13.4c-1.4,1.2-3,2.1-4.8,2.5l-0.9-3.2c1.2-0.4,2.4-1,3.4-1.9c1.4-1.2,2.5-2.7,3.3-4.3
			c0.2-0.3,0.3-0.6,0.3-0.9c0-0.4-0.1-0.7-0.3-1l-7.9-19.7L231.5,254.1L231.5,254.1z"/>
		<path class="st0" d="M275.4,274.7c-1.9,0.8-4,1.3-6.1,1.2c-6.4,0-10.6-4.4-10.6-10.9c0-6.5,4.5-11.4,11.5-11.4
			c1.9,0,3.7,0.4,5.4,1.1l-0.9,3c-1.4-0.7-2.9-1.1-4.5-1c-4.9,0-7.5,3.7-7.5,8.1c0,4.9,3.2,8,7.4,8c1.6,0,3.3-0.3,4.8-1L275.4,274.7
			z"/>
		<path class="st0" d="M297.9,269.6c0,2.3,0,4.2,0.2,5.9h-3.4l-0.2-3.5h-0.1c-1.5,2.5-4.2,4-7.1,4c-3.4,0-7.4-1.9-7.4-9.4V254h3.9
			v11.8c0,4.1,1.3,6.8,4.8,6.8c2.3-0.1,4.3-1.5,5.1-3.6c0.2-0.6,0.4-1.3,0.4-2v-13h3.9L297.9,269.6L297.9,269.6z"/>
		<path class="st0" d="M319.3,270.3c0,1.7,0.1,3.4,0.3,5.1h-3.5l-0.3-2.7h-0.1c-1.5,2.1-4,3.2-6.6,3.2c-4.3,0-6.6-3-6.6-6.1
			c0-5.2,4.6-8,12.9-7.9v-0.4c0-1.7-0.5-4.9-4.9-4.9c-2,0-3.9,0.5-5.6,1.6l-0.9-2.6c2.1-1.2,4.6-1.9,7.1-1.9c6.6,0,8.1,4.5,8.1,8.7
			v8L319.3,270.3z M315.6,264.5c-4.2-0.1-9,0.7-9,4.8c-0.2,1.9,1.2,3.5,3.1,3.7c0.2,0,0.4,0,0.5,0c2.3,0.1,4.5-1.4,5.3-3.6
			c0.1-0.4,0.2-0.8,0.2-1.2V264.5L315.6,264.5z"/>
		<path class="st0" d="M325.6,244.1h3.9v31.3h-3.9V244.1z"/>
		<path class="st0" d="M340.3,248.1c0,1.3-1,2.4-2.2,2.4c-0.1,0-0.1,0-0.2,0c-1.3,0-2.3-1-2.3-2.2c0-0.1,0-0.1,0-0.2
			c0-1.3,1-2.4,2.3-2.4c0,0,0.1,0,0.1,0c1.3,0,2.4,1,2.4,2.3C340.3,248,340.3,248,340.3,248.1z M336,275.4v-21.4h3.9v21.4L336,275.4
			L336,275.4z"/>
		<path class="st0" d="M346.7,275.4V257h-3v-3h3v-1.2c0-5.6,3.3-9.3,9.3-9.3c1.9,0,3.8,0.5,5.4,1.4l-1.1,3c-1.4-0.8-2.9-1.3-4.5-1.2
			c-4.1,0-5.3,2.9-5.3,6.3v1.1H363v21.4h-3.9V257h-8.5v18.4L346.7,275.4L346.7,275.4z"/>
		<path class="st0" d="M384.7,274.7c-1.9,0.8-4,1.3-6.1,1.2c-6.4,0-10.6-4.4-10.6-10.9c0-6.5,4.5-11.4,11.5-11.4
			c1.9,0,3.7,0.4,5.4,1.1l-0.9,3c-1.4-0.7-2.9-1-4.5-1c-4.9,0-7.5,3.7-7.5,8.1c0,4.9,3.2,8,7.4,8c1.6,0,3.3-0.3,4.8-1L384.7,274.7z"
			/>
		<path class="st0" d="M404.2,270.3c0,1.7,0.1,3.4,0.3,5.1H401l-0.3-2.7h-0.1c-1.5,2.1-4,3.2-6.6,3.2c-4.3,0-6.6-3-6.6-6.1
			c0-5.2,4.6-8,12.9-7.9v-0.4c0-1.7-0.5-4.9-4.9-4.9c-2,0-3.9,0.5-5.6,1.6l-0.9-2.6c2.1-1.2,4.6-1.9,7.1-1.9c6.6,0,8.1,4.5,8.1,8.7
			v8L404.2,270.3z M400.5,264.5c-4.2-0.1-9,0.7-9,4.8c-0.2,1.9,1.2,3.5,3.1,3.7c0.2,0,0.4,0,0.5,0c2.3,0.1,4.5-1.4,5.3-3.6
			c0.1-0.4,0.2-0.8,0.2-1.2V264.5L400.5,264.5z"/>
		<path class="st0" d="M425.7,274.7c-1.9,0.8-4,1.3-6.1,1.2c-6.4,0-10.6-4.4-10.6-10.9c0-6.5,4.5-11.4,11.5-11.4
			c1.9,0,3.7,0.4,5.4,1.1l-0.9,3c-1.4-0.7-2.9-1.1-4.5-1c-4.9,0-7.5,3.7-7.5,8.1c0,4.9,3.2,8,7.4,8c1.6,0,3.3-0.3,4.8-1L425.7,274.7
			z"/>
		<path class="st0" d="M434.6,248.1c0,1.3-1,2.4-2.2,2.4c-0.1,0-0.1,0-0.2,0c-1.3,0-2.3-1-2.3-2.2c0-0.1,0-0.1,0-0.2
			c0-1.3,1-2.4,2.3-2.4c0,0,0.1,0,0.1,0c1.3,0,2.4,1,2.4,2.3C434.6,248,434.6,248,434.6,248.1z M430.3,275.4v-21.4h3.9v21.4
			L430.3,275.4L430.3,275.4z"/>
		<path class="st0" d="M459.9,264.6c0,7.9-5.5,11.3-10.6,11.3c-5.7,0-10.2-4.2-10.2-11c0-7.1,4.7-11.3,10.6-11.3
			C455.8,253.6,459.9,258.1,459.9,264.6z M443,264.8c0,4.7,2.6,8.2,6.4,8.2c3.8,0,6.5-3.5,6.5-8.3c0-3.6-1.8-8.2-6.4-8.2
			S443,260.8,443,264.8L443,264.8z M455.3,244.8l-5.4,6.3h-2.7l3.8-6.3H455.3L455.3,244.8z"/>
		<path class="st0" d="M464.8,259.8c0-2.3,0-4-0.2-5.8h3.4l0.2,3.5h0.1c1.4-2.5,4.2-4,7.1-4c3,0,7.5,1.8,7.5,9.1v12.7h-3.9v-12.3
			c0-3.4-1.3-6.3-4.9-6.3c-3.1,0.1-5.5,2.7-5.5,5.8v12.9h-3.9V259.8z"/>
	</g>
	<g>
		<path class="st0" d="M63.5,36.8c0,12.6-9.3,22.8-24.6,22.8c-14.4,0-23.7-10.2-23.7-22.8c0-12.9,9.6-22.8,24.3-22.8
			S63.2,23.9,63.5,36.8z M16.3,224.7v-147H62v147L16.3,224.7L16.3,224.7z"/>
		<path class="st0" d="M209,220.8c-8.1,3.9-23.5,6.9-40.9,6.9c-47.5,0-77.9-29.1-77.9-75.1c0-43,29.5-78.2,84.2-78.2
			c12,0,25.3,2.1,34.9,5.7l-7.2,34c-5.4-2.4-13.5-4.5-25.6-4.5c-24,0-39.7,17.1-39.4,41.2c0,26.8,18,41.2,40.3,41.2
			c10.8,0,19.2-1.8,26.2-4.8L209,220.8z"/>
	</g>
	<g>
		
			<ellipse transform="matrix(0.3341 -0.9425 0.9425 0.3341 135.7672 379.637)" class="st1" cx="336.6" cy="93.7" rx="23.8" ry="29.5"/>
		<path class="st1" d="M425.1,126.5c0,0-10,29.1-42,40.7c0,0-24.4,12.2-67.9,0c0,0-31.3-8.8-53.9-36l35.7-12.5
			c0,0,54.2,50.7,96.4-7.2L425.1,126.5z"/>
		<path class="st1" d="M447.6,138c0,0-29.1,45.1-76.4,52c0,0-51.7,12.5-102.7-26c0,0-44.4-30.4-25.4-84.8l0,0
			c12-28,45.4-33.8,48.8-34.2h0.1c65.5-6.2,114.5,36,114.5,36l44.7-11.3c-14.1-17.8-44.7-34.1-44.7-34.1C366.2,12.5,315,9.5,315,9.5
			c-87.2-7.3-108.8,59.1-108.8,59.1v0.1l5.1,1c7.2,1.5,11.9,8.5,10.5,15.7l-6.1,30.5c-1.5,7.2-8.5,11.9-15.7,10.5l-0.7-0.1
			c0.6,2.9,19.4,90.3,143.8,101.4c0,0,96,10.6,138.9-75.1L447.6,138z"/>
	</g>
</g>
</svg>
